# xmcd
#
# Track frame offsets: 
#        150
#        11534
#        25219
#        35289
#        59011
#        71114
#        85232
#        100051
#        112693
#        124014
#        135797
#        153246
#        172000
#        184336
#        203575
#        220911
#        231756
#        245052
#        256905
#        263019
#        288566
#        301279
#        315346
#        333285
#
# Disc length: 4764 seconds
#
# Revision: 1
# Processed by: cddbd v1.5.2PL0 Copyright (c) Steve Scherf et al.
# Submitted via: ExactAudioCopyFreeDBPlugin 1.0
#
DISCID=46129a18
DTITLE=Various Artist - Jazz Masterpieces [CD1]
DYEAR=2007
DGENRE=Jazz
TTITLE0=Louis Armstrong - Hello Dolly
TTITLE1=Count Basie - Jumping At The Woodside
TTITLE2=Tommy Dorsey - Boogie Woogie
TTITLE3=Duke Ellington - Rockin' In Rhythm
TTITLE4=Dizzy Gillespie - Groovin' High
TTITLE5=Benny Goodman - And The Angels Sing
TTITLE6=Woody Herman - Four Brothers
TTITLE7=Earl Hines - Cavernism
TTITLE8=Harry James - Cirbirbin (They're So In Love)
TTITLE9=Louis Jordan - Choo Choo Ch'boogie
TTITLE10=Stan Kenton - The Peanut Vendor
TTITLE11=Buddy Rich - Quiet Riot
TTITLE12=Louis Armstrong - Basin' Street Blues
TTITLE13=Count Basie - Going To Chicago
TTITLE14=Jimmy Dorsey - Carolina In The Morning
TTITLE15=Duke Ellington - Perdido
TTITLE16=Dizzy Gillespie - Blue'n Boogie
TTITLE17=Benny Goodman - Whispering
TTITLE18=Claude Hopkins - (I Would Do) Anything For You
TTITLE19=Buddy Johnson - Walk'em
TTITLE20=Louis Armstrong - Stompin'at The Savoy
TTITLE21=Count Basie - Swinging The Blues
TTITLE22=Woody Herman - Early Autumn
TTITLE23=Duke Ellington - Take The A Train
EXTD=YEAR: 2007
EXTT0=
EXTT1=
EXTT2=
EXTT3=
EXTT4=
EXTT5=
EXTT6=
EXTT7=
EXTT8=
EXTT9=
EXTT10=
EXTT11=
EXTT12=
EXTT13=
EXTT14=
EXTT15=
EXTT16=
EXTT17=
EXTT18=
EXTT19=
EXTT20=
EXTT21=
EXTT22=
EXTT23=
PLAYORDER=
